<svg xmlns="http://www.w3.org/2000/svg" viewBox="0 0 16 16" fill="none" shape-rendering="crispEdges"><metadata xmlns:rdf="http://www.w3.org/1999/02/22-rdf-syntax-ns#" xmlns:xsi="http://www.w3.org/2001/XMLSchema-instance" xmlns:dc="http://purl.org/dc/elements/1.1/" xmlns:dcterms="http://purl.org/dc/terms/"><rdf:RDF><rdf:Description><dc:title>Pixel Art</dc:title><dc:creator>DiceBear</dc:creator><dc:source xsi:type="dcterms:URI">https://www.figma.com/community/file/1198754108850888330</dc:source><dcterms:license xsi:type="dcterms:URI">https://creativecommons.org/publicdomain/zero/1.0/</dcterms:license><dc:rights>„Pixel Art” (https://www.figma.com/community/file/1198754108850888330) by „DiceBear”, licensed under „CC0 1.0” (https://creativecommons.org/publicdomain/zero/1.0/)</dc:rights></rdf:Description></rdf:RDF></metadata><mask id="viewboxMask"><rect width="16" height="16" rx="0" ry="0" x="0" y="0" fill="#fff" /></mask><g mask="url(#viewboxMask)"><path d="M4 2h8v1h1v3h1v2h-1v3h-1v1H9v1h4v1h1v2H2v-2h1v-1h4v-1H4v-1H3V8H2V6h1V3h1V2Z" fill="#a26d3d"/><path d="M4 2h8v1h1v3h1v2h-1v3h-1v1H4v-1H3V8H2V6h1V3h1V2Z" fill="#fff" fill-opacity=".1"/><path d="M5 13H4v3h3v-1H6v-1H5v-1ZM12 13h-1v1h-1v1H9v1h3v-3Z" fill="#03396c"/><path fill="#fff" d="M4 5h3v2H4zM9 5h3v2H9z"/><path fill="#588387" d="M9 6h1v1H9zM4 6h1v1H4z"/><mask id="beardVariant01-a" style="mask-type:luminance" maskUnits="userSpaceOnUse" x="3" y="8" width="10" height="4"><path opacity=".9" d="M3 8h2v1h1v1h4V9h1V8h2v3h-1v1H4v-1H3V8Z" fill="#28150a"/></mask><g mask="url(#beardVariant01-a)"><path fill="#28150a" d="M0 0h16v16H0z"/><path fill="#fff" fill-opacity=".3" d="M0 0h16v16H0z"/></g><path d="M9 9v1H8v1h2V9H9Z" fill="#d29985"/><path d="M2 1h12v1h1v11h-1v-1h-1V8h1V6h-1V3h-1v1h-1V3H8v1H7v1H6v1H5v1H4v1H3v4H2v1H1V2h1V1Z" fill="#28150a"/></g></svg>