<svg xmlns="http://www.w3.org/2000/svg" viewBox="0 0 16 16" fill="none" shape-rendering="crispEdges"><metadata xmlns:rdf="http://www.w3.org/1999/02/22-rdf-syntax-ns#" xmlns:xsi="http://www.w3.org/2001/XMLSchema-instance" xmlns:dc="http://purl.org/dc/elements/1.1/" xmlns:dcterms="http://purl.org/dc/terms/"><rdf:RDF><rdf:Description><dc:title>Pixel Art</dc:title><dc:creator>DiceBear</dc:creator><dc:source xsi:type="dcterms:URI">https://www.figma.com/community/file/1198754108850888330</dc:source><dcterms:license xsi:type="dcterms:URI">https://creativecommons.org/publicdomain/zero/1.0/</dcterms:license><dc:rights>„Pixel Art” (https://www.figma.com/community/file/1198754108850888330) by „DiceBear”, licensed under „CC0 1.0” (https://creativecommons.org/publicdomain/zero/1.0/)</dc:rights></rdf:Description></rdf:RDF></metadata><mask id="viewboxMask"><rect width="16" height="16" rx="0" ry="0" x="0" y="0" fill="#fff" /></mask><g mask="url(#viewboxMask)"><path d="M4 2h8v1h1v3h1v2h-1v3h-1v1H9v1h4v1h1v2H2v-2h1v-1h4v-1H4v-1H3V8H2V6h1V3h1V2Z" fill="#cb9e6e"/><path d="M4 2h8v1h1v3h1v2h-1v3h-1v1H4v-1H3V8H2V6h1V3h1V2Z" fill="#fff" fill-opacity=".1"/><path d="M5 13H3v1H2v2h12v-2h-1v-1h-2v1h-1v1H6v-1H5v-1Z" fill="#ffc425"/><path fill="#fff" d="M4 5h3v2H4zM9 5h3v2H9z"/><path d="M11 5h-1v1H9v1h3V6h-1V5Z" fill="#876658"/><path fill="#fff" fill-opacity=".5" d="M9 6h1v1H9zM10 5h1v1h-1zM11 6h1v1h-1z"/><path d="M6 5H5v1H4v1h3V6H6V5Z" fill="#876658"/><path fill="#fff" fill-opacity=".5" d="M4 6h1v1H4zM5 5h1v1H5zM6 6h1v1H6z"/><mask id="beardVariant02-a" style="mask-type:luminance" maskUnits="userSpaceOnUse" x="5" y="11" width="6" height="3"><path opacity=".9" d="M5 11h6v1h-1v1H9v1H7v-1H6v-1H5v-1Z" fill="#009bbd"/></mask><g mask="url(#beardVariant02-a)"><path fill="#009bbd" d="M0 0h16v16H0z"/><path fill="#fff" fill-opacity=".3" d="M0 0h16v16H0z"/></g><path d="M6 9v1h3v1h1v-1H9V9H6Z" fill="#de0f0d"/><path d="M2 1h12v1h1v11h-1v-1h-1V8h1V6h-1V3H3v3H2v2h1v4H2v1H1V2h1V1Z" fill="#009bbd"/></g></svg>