<svg xmlns="http://www.w3.org/2000/svg" viewBox="0 0 16 16" fill="none" shape-rendering="crispEdges"><metadata xmlns:rdf="http://www.w3.org/1999/02/22-rdf-syntax-ns#" xmlns:xsi="http://www.w3.org/2001/XMLSchema-instance" xmlns:dc="http://purl.org/dc/elements/1.1/" xmlns:dcterms="http://purl.org/dc/terms/"><rdf:RDF><rdf:Description><dc:title>Pixel Art</dc:title><dc:creator>DiceBear</dc:creator><dc:source xsi:type="dcterms:URI">https://www.figma.com/community/file/1198754108850888330</dc:source><dcterms:license xsi:type="dcterms:URI">https://creativecommons.org/publicdomain/zero/1.0/</dcterms:license><dc:rights>„Pixel Art” (https://www.figma.com/community/file/1198754108850888330) by „DiceBear”, licensed under „CC0 1.0” (https://creativecommons.org/publicdomain/zero/1.0/)</dc:rights></rdf:Description></rdf:RDF></metadata><mask id="viewboxMask"><rect width="16" height="16" rx="0" ry="0" x="0" y="0" fill="#fff" /></mask><g mask="url(#viewboxMask)"><path d="M4 2h8v1h1v3h1v2h-1v3h-1v1H9v1h4v1h1v2H2v-2h1v-1h4v-1H4v-1H3V8H2V6h1V3h1V2Z" fill="#cb9e6e"/><path d="M4 2h8v1h1v3h1v2h-1v3h-1v1H4v-1H3V8H2V6h1V3h1V2Z" fill="#fff" fill-opacity=".1"/><path d="M10 13h3v1h1v2H2v-2h1v-1h3v2h4v-2Z" fill="#ffeead"/><path fill="#fff" d="M4 5h3v2H4zM9 5h3v2H9z"/><path fill="#647b90" d="M9 6h1v1H9zM4 6h1v1H4z"/><path d="M2 5h5v1H4v1H3V6H2V5ZM7 7v1H4V7h3ZM9 7H7V6h2v1ZM12 7H9v1h3V7ZM12 6H9V5h5v1h-1v1h-1V6Z" fill="#4b4b4b"/><path fill="#fff" fill-opacity=".3" d="M4 6h3v1H4zM9 6h3v1H9z"/><path fill="#fff" fill-opacity=".2" d="M12 5h2v1h-2zM2 5h2v1H2zM7 6h2v1H7z"/><path d="M7 9v2h2V9H7Z" fill="#de0f0d"/><path d="M4 3H3v2h1zM13 3h-1v2h1zM12 2H4v1h8z" fill="#28150a"/></g></svg>